<?xml version="1.0" standalone="no"?>
<!DOCTYPE svg PUBLIC "-//W3C//DTD SVG 20010904//EN"
 "http://www.w3.org/TR/2001/REC-SVG-20010904/DTD/svg10.dtd">
<svg version="1.0" xmlns="http://www.w3.org/2000/svg"
 width="468.000000pt" height="468.000000pt" viewBox="0 0 468.000000 468.000000"
 preserveAspectRatio="xMidYMid meet">
<metadata>
Created by potrace 1.14, written by Peter Selinger 2001-2017
</metadata>
<g transform="translate(0.000000,468.000000) scale(0.100000,-0.100000)"
fill="#000000" stroke="none">
<path d="M2300 4563 c0 -5 11 -24 24 -43 13 -19 27 -46 31 -60 4 -14 16 -37
27 -52 11 -16 17 -28 14 -28 -3 0 2 -16 10 -35 8 -20 12 -40 9 -45 -4 -6 -2
-10 3 -10 8 0 22 -40 38 -112 1 -5 2 -9 4 -10 2 -3 5 -17 15 -78 8 -46 9 -181
2 -246 -6 -56 -31 -159 -49 -202 -6 -15 -12 -30 -13 -34 -2 -5 -3 -9 -5 -10
-1 -2 -3 -10 -5 -18 -2 -8 -11 -36 -19 -62 -8 -27 -12 -48 -9 -48 3 0 0 -7 -7
-15 -7 -8 -10 -15 -7 -15 3 0 2 -13 -3 -29 -4 -16 -6 -32 -2 -35 3 -4 7 -34 8
-69 6 -138 9 -177 14 -177 13 0 3 -160 -13 -215 -20 -67 -58 -167 -66 -175 -3
-3 -7 -13 -9 -23 -4 -22 -61 -127 -79 -145 -7 -7 -13 -20 -13 -28 0 -8 -3 -14
-7 -14 -5 0 -19 -18 -33 -40 -24 -40 -50 -53 -50 -26 0 8 -9 21 -20 29 -11 7
-21 22 -23 33 -1 10 -6 25 -11 32 -18 30 -17 109 4 187 12 44 22 88 23 98 1 9
5 17 9 17 4 0 7 3 7 8 -1 4 0 9 1 12 5 15 11 52 16 105 10 113 10 125 2 125
-4 0 -8 -7 -8 -16 0 -9 -9 -29 -21 -45 -11 -16 -18 -29 -15 -29 7 0 -9 -20
-59 -74 -18 -20 -39 -36 -47 -36 -20 1 -83 90 -82 117 1 13 -2 23 -6 23 -5 0
-7 6 -6 13 6 29 19 73 25 82 3 6 7 17 8 25 1 8 6 35 10 60 14 76 3 355 -14
384 -3 5 -8 27 -10 50 -6 53 -9 67 -18 91 -15 41 -24 71 -28 90 -3 11 -6 2 -7
-20 -6 -123 -19 -254 -29 -308 -4 -25 -6 -49 -3 -52 3 -3 1 -5 -4 -5 -6 0 -11
-10 -11 -22 -2 -24 -6 -42 -16 -68 -17 -44 -28 -93 -37 -165 -6 -44 -22 -118
-37 -164 -14 -47 -27 -92 -28 -100 -2 -9 -4 -17 -5 -18 -4 -5 -6 -15 -14 -73
-5 -30 -10 -64 -12 -75 -2 -11 -9 -59 -16 -107 -8 -64 -15 -85 -25 -81 -7 3
-13 14 -13 24 0 11 -7 19 -16 19 -8 0 -12 -5 -8 -11 7 -12 13 -130 7 -141 -7
-13 -69 56 -81 90 -6 18 -8 32 -5 32 3 0 1 6 -4 13 -6 6 -9 22 -8 35 1 12 -1
22 -5 22 -3 0 -6 15 -5 33 1 17 -2 42 -7 55 -5 15 -4 22 5 22 7 0 8 3 2 8 -5
4 -12 14 -14 22 -5 20 -2 189 3 218 3 12 3 22 1 22 -7 0 -66 -60 -59 -60 5 0
3 -4 -5 -9 -8 -5 -16 -15 -17 -23 -1 -7 -5 -29 -9 -48 -13 -65 -8 -277 10
-400 3 -19 8 -102 10 -185 3 -82 7 -156 10 -162 2 -7 -1 -13 -8 -13 -7 0 -8
-3 -2 -8 6 -4 10 -41 10 -82 0 -41 4 -81 9 -87 5 -7 6 -13 3 -13 -16 0 56
-180 75 -188 4 -2 8 -8 8 -14 0 -6 8 -17 17 -24 10 -7 15 -15 12 -18 -3 -4
-33 20 -65 52 -66 67 -88 92 -78 92 3 0 1 7 -6 15 -7 8 -9 15 -5 15 4 0 3 6
-2 13 -5 6 -10 24 -11 38 -1 14 -5 37 -10 49 l-9 24 -18 -21 -18 -21 -23 23
c-27 27 -61 92 -69 131 -14 68 -21 206 -12 247 3 15 1 27 -4 27 -8 0 -13 -15
-10 -32 0 -5 -3 -8 -7 -8 -5 0 -9 -6 -9 -12 -1 -7 -13 -49 -29 -93 -15 -44
-29 -87 -32 -95 -3 -8 -5 -25 -6 -37 -1 -12 -3 -24 -6 -27 -9 -8 -3 -145 15
-351 8 -92 27 -227 41 -295 3 -14 6 -32 6 -40 1 -8 7 -25 14 -39 7 -13 11 -28
8 -33 -3 -4 0 -8 6 -8 7 0 10 -6 7 -14 -3 -8 1 -20 9 -26 8 -7 14 -19 14 -26
0 -8 5 -14 10 -14 13 0 13 6 0 31 -6 10 -7 19 -2 19 5 0 11 26 14 58 2 32 11
68 20 81 15 22 17 22 26 4 6 -10 12 -27 13 -38 2 -11 6 -22 9 -25 8 -7 38
-109 46 -155 4 -22 9 -44 13 -50 3 -5 6 -14 7 -20 1 -5 5 -26 8 -45 4 -19 8
-44 9 -55 2 -11 6 -26 10 -32 5 -7 6 -13 3 -13 -11 0 44 -121 79 -170 41 -60
76 -95 142 -143 24 -17 43 -33 43 -36 0 -4 18 -17 40 -31 22 -14 40 -28 40
-32 0 -5 6 -8 13 -8 7 0 22 -8 33 -18 10 -10 41 -33 69 -52 27 -19 61 -45 75
-57 25 -22 50 -41 157 -122 32 -25 60 -48 63 -52 3 -3 27 -23 54 -44 27 -20
67 -55 88 -76 22 -21 43 -39 47 -39 4 0 25 17 47 37 46 43 124 105 124 98 0
-2 17 12 38 33 21 20 55 48 75 62 20 14 37 28 37 32 0 4 12 14 28 22 15 8 41
27 58 42 17 16 37 34 46 39 8 6 80 59 159 118 160 121 234 187 244 217 4 11
10 18 14 16 7 -5 59 99 66 133 2 12 6 24 8 29 3 4 8 23 11 42 12 70 16 96 22
120 3 14 8 34 11 45 2 11 7 34 10 50 5 33 22 76 56 147 38 81 66 47 68 -79 1
-64 14 -83 25 -38 3 14 11 22 17 18 5 -3 8 -2 5 3 -3 5 -1 20 5 34 11 28 13
34 20 73 3 15 8 35 11 45 4 15 9 44 22 142 3 29 14 171 18 246 2 28 6 56 10
62 4 7 2 12 -5 12 -7 0 -8 4 -2 13 12 17 8 164 -7 229 -17 77 -63 198 -75 198
-6 0 -10 -36 -11 -88 -1 -136 -16 -211 -50 -247 -13 -14 -20 -25 -16 -25 4 -1
-6 -8 -21 -16 -26 -14 -30 -14 -42 3 -7 10 -11 21 -9 25 3 5 1 8 -4 8 -9 0
-22 -45 -27 -92 -2 -10 -4 -21 -5 -25 -1 -5 -2 -12 -1 -16 3 -16 -29 -64 -68
-105 -23 -23 -41 -40 -41 -37 0 3 -16 -12 -36 -33 -37 -38 -37 -29 1 23 61 85
104 195 100 253 -1 12 1 22 4 22 7 0 8 20 15 225 2 83 5 150 6 150 1 0 3 19 6
43 2 23 6 61 8 85 3 23 5 42 6 42 13 0 18 293 6 335 -4 14 -8 31 -8 38 -1 6
-5 12 -9 12 -4 0 -9 10 -13 23 -5 20 -47 77 -57 77 -2 0 -4 -84 -4 -186 -1
-105 -5 -188 -10 -192 -6 -4 -10 -20 -9 -37 0 -16 -5 -45 -13 -64 -7 -19 -11
-36 -9 -39 10 -9 -71 -95 -82 -88 -5 3 -7 50 -5 106 2 68 -1 100 -8 100 -6 0
-9 -6 -6 -14 3 -7 0 -22 -8 -32 -7 -11 -13 -23 -14 -29 -1 -5 -4 -18 -7 -29
-16 -49 -25 18 -29 210 -4 200 -10 294 -21 359 -2 17 -5 37 -6 45 0 8 -5 21
-11 28 -5 7 -7 15 -4 19 4 3 2 12 -4 20 -6 7 -9 13 -5 13 4 0 0 13 -9 30 -8
16 -15 33 -16 37 0 5 -9 37 -19 72 -32 102 -49 208 -53 328 -1 24 -4 43 -7 43
-3 0 -6 17 -7 38 -1 20 -5 57 -9 82 -7 44 -8 42 -21 -50 -7 -52 -14 -102 -14
-110 -1 -33 -10 -60 -21 -60 -6 0 -8 3 -5 7 4 3 2 12 -4 20 -6 7 -9 13 -6 13
9 0 -81 257 -99 286 -9 13 -12 24 -8 24 5 0 4 4 -1 8 -6 4 -26 41 -45 82 -18
41 -37 77 -42 78 -4 2 -8 12 -8 22 0 10 -3 20 -7 22 -5 2 -21 29 -36 61 -16
31 -33 57 -38 57 -5 0 -9 5 -9 11 0 6 -12 26 -27 46 -36 47 -173 186 -173 176z"/>
</g>
</svg>
